<svg preserveAspectRatio="none" width="100%" height="100%" overflow="visible" style="display: block;" viewBox="0 0 28 28" fill="none" xmlns="http://www.w3.org/2000/svg">
<g id="Frame">
<path id="Vector" fill-rule="evenodd" clip-rule="evenodd" d="M9.00667 3.255L6.41667 6.70833C6.14125 7.07554 5.70901 7.29167 5.25 7.29167H4.66667C2.89476 7.29167 1.45833 8.72809 1.45833 10.5V22.1667C1.45833 23.9386 2.89476 25.375 4.66667 25.375H23.3333C25.1053 25.375 26.5417 23.9386 26.5417 22.1667V10.5C26.5417 8.72809 25.1053 7.29167 23.3333 7.29167H22.75C22.291 7.29167 21.8588 7.07553 21.5833 6.70833L18.9933 3.255C18.696 2.85841 18.2292 2.625 17.7333 2.625H10.2667C9.77093 2.625 9.30411 2.85841 9.00667 3.255ZM14 9.625C10.9394 9.625 8.45833 12.1061 8.45833 15.1667C8.45833 18.2272 10.9394 20.7083 14 20.7083C17.0605 20.7083 19.5417 18.2272 19.5417 15.1667C19.5417 12.1061 17.0605 9.625 14 9.625Z" fill="var(--fill-0, white)"/>
</g>
</svg>
