<svg preserveAspectRatio="none" width="100%" height="100%" overflow="visible" style="display: block;" viewBox="0 0 20 20" fill="none" xmlns="http://www.w3.org/2000/svg">
<g id="map-pin">
<path id="Vector" fill-rule="evenodd" clip-rule="evenodd" d="M16.6667 8.33333C16.6667 12.4942 12.0508 16.8275 10.5008 18.1658C10.3564 18.2744 10.1807 18.3331 10 18.3331C9.81934 18.3331 9.64356 18.2744 9.49917 18.1658C7.94917 16.8275 3.33333 12.4942 3.33333 8.33333C3.33333 6.56522 4.03571 4.86953 5.28596 3.61929C6.5362 2.36905 8.23189 1.66667 10 1.66667C11.7681 1.66667 13.4638 2.36905 14.714 3.61929C15.9643 4.86953 16.6667 6.56522 16.6667 8.33333ZM10 12.0832C12.071 12.0832 13.7499 10.4043 13.7499 8.33333C13.7499 6.26232 12.071 4.58344 10 4.58344C7.92899 4.58344 6.2501 6.26232 6.2501 8.33333C6.2501 10.4043 7.92899 12.0832 10 12.0832Z" fill="var(--fill-0, white)" stroke="var(--stroke-0, white)" stroke-width="1.5" stroke-linecap="round" stroke-linejoin="round"/>
</g>
</svg>
