<svg preserveAspectRatio="none" width="100%" height="100%" overflow="visible" style="display: block;" viewBox="0 0 16 16" fill="none" xmlns="http://www.w3.org/2000/svg">
<g id="Frame">
<path id="Vector" fill-rule="evenodd" clip-rule="evenodd" d="M8.82127 1.52454C9.02727 1.59151 9.16667 1.78347 9.16667 2.00003V6.1667H12.6667C12.8547 6.1667 13.0269 6.27223 13.1122 6.43981C13.1975 6.6074 13.1817 6.80867 13.0711 6.9608L7.73773 14.2941C7.61033 14.4693 7.38467 14.5425 7.17873 14.4755C6.97273 14.4085 6.83333 14.2166 6.83333 14.0001V9.8334H3.33333C3.14527 9.8334 2.97311 9.72787 2.88778 9.56027C2.80244 9.39267 2.81835 9.1914 2.92897 9.03927L8.26233 1.70595C8.38967 1.5308 8.61533 1.45757 8.82127 1.52454Z" fill="var(--fill-0, #F75346)"/>
</g>
</svg>
