<svg preserveAspectRatio="none" width="100%" height="100%" overflow="visible" style="display: block;" viewBox="0 0 14 14" fill="none" xmlns="http://www.w3.org/2000/svg">
<g id="Frame" clip-path="url(#clip0_0_36)">
<path id="Vector" fill-rule="evenodd" clip-rule="evenodd" d="M7 0.729167C3.53672 0.729167 0.729167 3.53672 0.729167 7C0.729167 10.4633 3.53672 13.2708 7 13.2708C10.4633 13.2708 13.2708 10.4633 13.2708 7C13.2708 3.53672 10.4633 0.729167 7 0.729167ZM3.90937 6.97861C3.70685 6.77186 3.37848 6.77186 3.17595 6.97861C2.97342 7.18537 2.97342 7.52052 3.17595 7.72728L5.25039 9.84494C5.45293 10.0517 5.78132 10.0517 5.98379 9.84494L10.8242 4.90375C11.0267 4.697 11.0267 4.36179 10.8242 4.15504C10.6216 3.94829 10.2933 3.94829 10.0908 4.15504L5.6171 8.72187L3.90937 6.97861Z" fill="var(--fill-0, #2CB77A)"/>
</g>
<defs>
<clipPath id="clip0_0_36">
<rect width="14" height="14" fill="white"/>
</clipPath>
</defs>
</svg>
