<svg preserveAspectRatio="none" width="100%" height="100%" overflow="visible" style="display: block;" viewBox="0 0 14 14" fill="none" xmlns="http://www.w3.org/2000/svg">
<g id="Frame">
<path id="Vector" fill-rule="evenodd" clip-rule="evenodd" d="M5.1917 1.9367C5.80854 0.863984 7.35624 0.863984 7.973 1.9367L12.6647 10.0962C13.2797 11.1657 12.5077 12.5 11.2741 12.5H1.89064C0.657015 12.5 -0.114948 11.1657 0.499982 10.0962L5.1917 1.9367ZM6.58227 3.99999C6.91799 3.99999 7.19016 4.27216 7.19016 4.60788V7.84997C7.19016 8.18568 6.91799 8.45786 6.58227 8.45786C6.24655 8.45786 5.97438 8.18568 5.97438 7.84997V4.60788C5.97438 4.27216 6.24655 3.99999 6.58227 3.99999ZM7.11006 10.3623C7.37422 10.0687 7.35039 9.6167 7.05687 9.35254C6.76335 9.08838 6.3113 9.11212 6.04714 9.40564L6.03761 9.41622C5.77345 9.70974 5.79728 10.1618 6.0908 10.4259C6.38432 10.6901 6.83637 10.6663 7.10053 10.3729L7.11006 10.3623Z" fill="var(--fill-0, #FF952B)"/>
</g>
</svg>
